<svg xmlns="http://www.w3.org/2000/svg" width="17" height="16" fill="none"><path stroke="#FE7E25" stroke-linecap="round" stroke-linejoin="round" stroke-width="1.5" d="M15 11.28v2a1.333 1.333 0 0 1-1.453 1.334 13.193 13.193 0 0 1-5.754-2.047 13 13 0 0 1-4-4 13.193 13.193 0 0 1-2.046-5.78 1.333 1.333 0 0 1 1.326-1.453h2c.67-.007 1.24.484 1.334 1.146a8.56 8.56 0 0 0 .466 1.874 1.333 1.333 0 0 1-.3 1.406l-.846.847a10.667 10.667 0 0 0 4 4l.846-.847c.37-.366.92-.483 1.407-.3a8.56 8.56 0 0 0 1.873.467c.67.095 1.164.676 1.147 1.353Z" clip-rule="evenodd"/></svg>